<mxfile host="app.diagrams.net" agent="Mozilla/5.0 (Windows NT 10.0; Win64; x64) AppleWebKit/537.36 (KHTML, like Gecko) Chrome/140.0.0.0 Safari/537.36" version="28.2.4">
  <diagram name="Page-1" id="iFiCsvncxO4-ygc4CCNQ">
    <mxGraphModel dx="1113" dy="702" grid="1" gridSize="10" guides="1" tooltips="1" connect="1" arrows="1" fold="1" page="1" pageScale="1" pageWidth="850" pageHeight="1100" math="0" shadow="0">
      <root>
        <mxCell id="0" />
        <mxCell id="1" parent="0" />
        <mxCell id="4NHsTmWAdliAGycjNy7Z-1" value="&lt;span style=&quot;font-weight: 700;&quot;&gt;SmartDeviceFactory(interface)&lt;/span&gt;" style="swimlane;fontStyle=0;childLayout=stackLayout;horizontal=1;startSize=26;fillColor=none;horizontalStack=0;resizeParent=1;resizeParentMax=0;resizeLast=0;collapsible=1;marginBottom=0;whiteSpace=wrap;html=1;" vertex="1" parent="1">
          <mxGeometry x="370" y="260" width="200" height="78" as="geometry" />
        </mxCell>
        <mxCell id="4NHsTmWAdliAGycjNy7Z-2" value="+ create Bulb(): SmartBulb&lt;div&gt;&lt;br&gt;&lt;/div&gt;" style="text;strokeColor=none;fillColor=none;align=left;verticalAlign=top;spacingLeft=4;spacingRight=4;overflow=hidden;rotatable=0;points=[[0,0.5],[1,0.5]];portConstraint=eastwest;whiteSpace=wrap;html=1;" vertex="1" parent="4NHsTmWAdliAGycjNy7Z-1">
          <mxGeometry y="26" width="200" height="26" as="geometry" />
        </mxCell>
        <mxCell id="4NHsTmWAdliAGycjNy7Z-3" value="+ create Lock(): SmartLock" style="text;strokeColor=none;fillColor=none;align=left;verticalAlign=top;spacingLeft=4;spacingRight=4;overflow=hidden;rotatable=0;points=[[0,0.5],[1,0.5]];portConstraint=eastwest;whiteSpace=wrap;html=1;" vertex="1" parent="4NHsTmWAdliAGycjNy7Z-1">
          <mxGeometry y="52" width="200" height="26" as="geometry" />
        </mxCell>
        <mxCell id="4NHsTmWAdliAGycjNy7Z-4" value="BrandFactoryB" style="swimlane;fontStyle=1;align=center;verticalAlign=top;childLayout=stackLayout;horizontal=1;startSize=26;horizontalStack=0;resizeParent=1;resizeParentMax=0;resizeLast=0;collapsible=1;marginBottom=0;whiteSpace=wrap;html=1;" vertex="1" parent="1">
          <mxGeometry x="380" y="70" width="160" height="76" as="geometry" />
        </mxCell>
        <mxCell id="4NHsTmWAdliAGycjNy7Z-5" value="+ create Bulb(): Smart Bulb&lt;div&gt;+ create Lock(): Smart Lock&lt;/div&gt;" style="text;strokeColor=none;fillColor=none;align=left;verticalAlign=top;spacingLeft=4;spacingRight=4;overflow=hidden;rotatable=0;points=[[0,0.5],[1,0.5]];portConstraint=eastwest;whiteSpace=wrap;html=1;" vertex="1" parent="4NHsTmWAdliAGycjNy7Z-4">
          <mxGeometry y="26" width="160" height="50" as="geometry" />
        </mxCell>
        <mxCell id="4NHsTmWAdliAGycjNy7Z-20" value="BrandFactoryA" style="swimlane;fontStyle=1;align=center;verticalAlign=top;childLayout=stackLayout;horizontal=1;startSize=26;horizontalStack=0;resizeParent=1;resizeParentMax=0;resizeLast=0;collapsible=1;marginBottom=0;whiteSpace=wrap;html=1;" vertex="1" parent="1">
          <mxGeometry x="390" y="424" width="160" height="76" as="geometry" />
        </mxCell>
        <mxCell id="4NHsTmWAdliAGycjNy7Z-21" value="+ create Blub():Smart Bulb&lt;div&gt;+ create Lock():Smart Lock&lt;/div&gt;" style="text;strokeColor=none;fillColor=none;align=left;verticalAlign=top;spacingLeft=4;spacingRight=4;overflow=hidden;rotatable=0;points=[[0,0.5],[1,0.5]];portConstraint=eastwest;whiteSpace=wrap;html=1;" vertex="1" parent="4NHsTmWAdliAGycjNy7Z-20">
          <mxGeometry y="26" width="160" height="50" as="geometry" />
        </mxCell>
        <mxCell id="4NHsTmWAdliAGycjNy7Z-40" value="Client" style="swimlane;fontStyle=1;align=center;verticalAlign=top;childLayout=stackLayout;horizontal=1;startSize=26;horizontalStack=0;resizeParent=1;resizeParentMax=0;resizeLast=0;collapsible=1;marginBottom=0;whiteSpace=wrap;html=1;" vertex="1" parent="1">
          <mxGeometry x="340" y="570" width="190" height="160" as="geometry" />
        </mxCell>
        <mxCell id="4NHsTmWAdliAGycjNy7Z-41" value="- SmartDeviceFactory factory&lt;div&gt;- SmartBulb bulb&lt;/div&gt;&lt;div&gt;- SmartLock lock&lt;/div&gt;" style="text;strokeColor=none;fillColor=none;align=left;verticalAlign=top;spacingLeft=4;spacingRight=4;overflow=hidden;rotatable=0;points=[[0,0.5],[1,0.5]];portConstraint=eastwest;whiteSpace=wrap;html=1;" vertex="1" parent="4NHsTmWAdliAGycjNy7Z-40">
          <mxGeometry y="26" width="190" height="64" as="geometry" />
        </mxCell>
        <mxCell id="4NHsTmWAdliAGycjNy7Z-42" value="" style="line;strokeWidth=1;fillColor=none;align=left;verticalAlign=middle;spacingTop=-1;spacingLeft=3;spacingRight=3;rotatable=0;labelPosition=right;points=[];portConstraint=eastwest;strokeColor=inherit;" vertex="1" parent="4NHsTmWAdliAGycjNy7Z-40">
          <mxGeometry y="90" width="190" height="8" as="geometry" />
        </mxCell>
        <mxCell id="4NHsTmWAdliAGycjNy7Z-43" value="+ main&lt;div&gt;+configureDevice (SmartDevice device)&lt;/div&gt;" style="text;strokeColor=none;fillColor=none;align=left;verticalAlign=top;spacingLeft=4;spacingRight=4;overflow=hidden;rotatable=0;points=[[0,0.5],[1,0.5]];portConstraint=eastwest;whiteSpace=wrap;html=1;" vertex="1" parent="4NHsTmWAdliAGycjNy7Z-40">
          <mxGeometry y="98" width="190" height="62" as="geometry" />
        </mxCell>
        <mxCell id="4NHsTmWAdliAGycjNy7Z-44" value="" style="html=1;verticalAlign=bottom;endArrow=open;dashed=1;endSize=8;curved=0;rounded=0;" edge="1" parent="1">
          <mxGeometry relative="1" as="geometry">
            <mxPoint x="380" y="121.5" as="sourcePoint" />
            <mxPoint x="310" y="122" as="targetPoint" />
          </mxGeometry>
        </mxCell>
        <mxCell id="4NHsTmWAdliAGycjNy7Z-45" value="" style="html=1;verticalAlign=bottom;endArrow=open;dashed=1;endSize=8;curved=0;rounded=0;exitX=1.019;exitY=0.3;exitDx=0;exitDy=0;exitPerimeter=0;entryX=0;entryY=0.25;entryDx=0;entryDy=0;" edge="1" parent="1" source="4NHsTmWAdliAGycjNy7Z-5" target="4NHsTmWAdliAGycjNy7Z-70">
          <mxGeometry relative="1" as="geometry">
            <mxPoint x="640" y="121.5" as="sourcePoint" />
            <mxPoint x="610" y="80" as="targetPoint" />
          </mxGeometry>
        </mxCell>
        <mxCell id="4NHsTmWAdliAGycjNy7Z-48" value="BrandBSmartLock" style="swimlane;fontStyle=0;childLayout=stackLayout;horizontal=1;startSize=26;fillColor=none;horizontalStack=0;resizeParent=1;resizeParentMax=0;resizeLast=0;collapsible=1;marginBottom=0;whiteSpace=wrap;html=1;" vertex="1" parent="1">
          <mxGeometry x="150" y="90" width="160" height="52" as="geometry" />
        </mxCell>
        <mxCell id="4NHsTmWAdliAGycjNy7Z-49" value="+ setUsage(): void" style="text;strokeColor=none;fillColor=none;align=left;verticalAlign=top;spacingLeft=4;spacingRight=4;overflow=hidden;rotatable=0;points=[[0,0.5],[1,0.5]];portConstraint=eastwest;whiteSpace=wrap;html=1;" vertex="1" parent="4NHsTmWAdliAGycjNy7Z-48">
          <mxGeometry y="26" width="160" height="26" as="geometry" />
        </mxCell>
        <mxCell id="4NHsTmWAdliAGycjNy7Z-56" value="BrandASmartLock" style="swimlane;fontStyle=0;childLayout=stackLayout;horizontal=1;startSize=26;fillColor=none;horizontalStack=0;resizeParent=1;resizeParentMax=0;resizeLast=0;collapsible=1;marginBottom=0;whiteSpace=wrap;html=1;" vertex="1" parent="1">
          <mxGeometry x="140" y="530" width="160" height="52" as="geometry" />
        </mxCell>
        <mxCell id="4NHsTmWAdliAGycjNy7Z-57" value="+ setUsage(): void" style="text;strokeColor=none;fillColor=none;align=left;verticalAlign=top;spacingLeft=4;spacingRight=4;overflow=hidden;rotatable=0;points=[[0,0.5],[1,0.5]];portConstraint=eastwest;whiteSpace=wrap;html=1;" vertex="1" parent="4NHsTmWAdliAGycjNy7Z-56">
          <mxGeometry y="26" width="160" height="26" as="geometry" />
        </mxCell>
        <mxCell id="4NHsTmWAdliAGycjNy7Z-60" value="" style="endArrow=block;dashed=1;endFill=0;endSize=12;html=1;rounded=0;exitX=0.422;exitY=1.186;exitDx=0;exitDy=0;exitPerimeter=0;entryX=0.54;entryY=-0.01;entryDx=0;entryDy=0;entryPerimeter=0;" edge="1" parent="1" source="4NHsTmWAdliAGycjNy7Z-49">
          <mxGeometry width="160" relative="1" as="geometry">
            <mxPoint x="212.55999999999995" y="194" as="sourcePoint" />
            <mxPoint x="243.4000000000001" y="268.9599999999999" as="targetPoint" />
          </mxGeometry>
        </mxCell>
        <mxCell id="4NHsTmWAdliAGycjNy7Z-62" value="&lt;span style=&quot;font-weight: 700;&quot;&gt;BrandASmartBulb&lt;/span&gt;" style="swimlane;fontStyle=0;childLayout=stackLayout;horizontal=1;startSize=26;fillColor=none;horizontalStack=0;resizeParent=1;resizeParentMax=0;resizeLast=0;collapsible=1;marginBottom=0;whiteSpace=wrap;html=1;" vertex="1" parent="1">
          <mxGeometry x="610" y="520" width="160" height="52" as="geometry" />
        </mxCell>
        <mxCell id="4NHsTmWAdliAGycjNy7Z-63" value="+ setUsage(): void" style="text;strokeColor=none;fillColor=none;align=left;verticalAlign=top;spacingLeft=4;spacingRight=4;overflow=hidden;rotatable=0;points=[[0,0.5],[1,0.5]];portConstraint=eastwest;whiteSpace=wrap;html=1;" vertex="1" parent="4NHsTmWAdliAGycjNy7Z-62">
          <mxGeometry y="26" width="160" height="26" as="geometry" />
        </mxCell>
        <mxCell id="4NHsTmWAdliAGycjNy7Z-70" value="&lt;span style=&quot;font-weight: 700;&quot;&gt;BrandBSmartBulb&lt;/span&gt;" style="swimlane;fontStyle=0;childLayout=stackLayout;horizontal=1;startSize=26;fillColor=none;horizontalStack=0;resizeParent=1;resizeParentMax=0;resizeLast=0;collapsible=1;marginBottom=0;whiteSpace=wrap;html=1;" vertex="1" parent="1">
          <mxGeometry x="600" y="103" width="160" height="52" as="geometry" />
        </mxCell>
        <mxCell id="4NHsTmWAdliAGycjNy7Z-71" value="+ setUsage(): void" style="text;strokeColor=none;fillColor=none;align=left;verticalAlign=top;spacingLeft=4;spacingRight=4;overflow=hidden;rotatable=0;points=[[0,0.5],[1,0.5]];portConstraint=eastwest;whiteSpace=wrap;html=1;" vertex="1" parent="4NHsTmWAdliAGycjNy7Z-70">
          <mxGeometry y="26" width="160" height="26" as="geometry" />
        </mxCell>
        <mxCell id="4NHsTmWAdliAGycjNy7Z-74" value="" style="endArrow=open;endSize=12;dashed=1;html=1;rounded=0;exitX=1;exitY=0.5;exitDx=0;exitDy=0;entryX=0;entryY=0.5;entryDx=0;entryDy=0;" edge="1" parent="1" source="4NHsTmWAdliAGycjNy7Z-21" target="4NHsTmWAdliAGycjNy7Z-63">
          <mxGeometry width="160" relative="1" as="geometry">
            <mxPoint x="450" y="450" as="sourcePoint" />
            <mxPoint x="610" y="450" as="targetPoint" />
          </mxGeometry>
        </mxCell>
        <mxCell id="4NHsTmWAdliAGycjNy7Z-75" value="" style="endArrow=open;endSize=12;dashed=1;html=1;rounded=0;exitX=-0.012;exitY=0.32;exitDx=0;exitDy=0;exitPerimeter=0;entryX=1;entryY=0.5;entryDx=0;entryDy=0;" edge="1" parent="1" source="4NHsTmWAdliAGycjNy7Z-21" target="4NHsTmWAdliAGycjNy7Z-57">
          <mxGeometry width="160" relative="1" as="geometry">
            <mxPoint x="300" y="410" as="sourcePoint" />
            <mxPoint x="460" y="410" as="targetPoint" />
          </mxGeometry>
        </mxCell>
        <mxCell id="4NHsTmWAdliAGycjNy7Z-76" value="" style="endArrow=block;dashed=1;endFill=0;endSize=12;html=1;rounded=0;exitX=0.4;exitY=0.94;exitDx=0;exitDy=0;exitPerimeter=0;entryX=0.5;entryY=0;entryDx=0;entryDy=0;" edge="1" parent="1" source="4NHsTmWAdliAGycjNy7Z-5" target="4NHsTmWAdliAGycjNy7Z-1">
          <mxGeometry width="160" relative="1" as="geometry">
            <mxPoint x="370" y="194" as="sourcePoint" />
            <mxPoint x="530" y="194" as="targetPoint" />
          </mxGeometry>
        </mxCell>
        <mxCell id="4NHsTmWAdliAGycjNy7Z-77" value="" style="endArrow=block;dashed=1;endFill=0;endSize=12;html=1;rounded=0;exitX=0.5;exitY=0;exitDx=0;exitDy=0;" edge="1" parent="1" source="4NHsTmWAdliAGycjNy7Z-20">
          <mxGeometry width="160" relative="1" as="geometry">
            <mxPoint x="410" y="390" as="sourcePoint" />
            <mxPoint x="470" y="340" as="targetPoint" />
          </mxGeometry>
        </mxCell>
        <mxCell id="4NHsTmWAdliAGycjNy7Z-61" value="" style="endArrow=block;dashed=1;endFill=0;endSize=12;html=1;rounded=0;" edge="1" parent="1" source="4NHsTmWAdliAGycjNy7Z-56" target="4NHsTmWAdliAGycjNy7Z-88">
          <mxGeometry width="160" relative="1" as="geometry">
            <mxPoint x="90" y="446.99" as="sourcePoint" />
            <mxPoint x="215.44999999999982" y="410.00199999999995" as="targetPoint" />
          </mxGeometry>
        </mxCell>
        <mxCell id="4NHsTmWAdliAGycjNy7Z-78" value="" style="endArrow=block;dashed=1;endFill=0;endSize=12;html=1;rounded=0;entryX=0.5;entryY=0;entryDx=0;entryDy=0;exitX=0.231;exitY=1.115;exitDx=0;exitDy=0;exitPerimeter=0;" edge="1" parent="1">
          <mxGeometry width="160" relative="1" as="geometry">
            <mxPoint x="646.96" y="156.99" as="sourcePoint" />
            <mxPoint x="689.9999999999995" y="210" as="targetPoint" />
          </mxGeometry>
        </mxCell>
        <mxCell id="4NHsTmWAdliAGycjNy7Z-79" value="" style="endArrow=block;dashed=1;endFill=0;endSize=12;html=1;rounded=0;exitX=0.483;exitY=1.112;exitDx=0;exitDy=0;exitPerimeter=0;entryX=0.713;entryY=-0.024;entryDx=0;entryDy=0;entryPerimeter=0;" edge="1" parent="1" source="4NHsTmWAdliAGycjNy7Z-94" target="4NHsTmWAdliAGycjNy7Z-62">
          <mxGeometry width="160" relative="1" as="geometry">
            <mxPoint x="664.0799999999995" y="315.50800000000004" as="sourcePoint" />
            <mxPoint x="800" y="360" as="targetPoint" />
          </mxGeometry>
        </mxCell>
        <mxCell id="4NHsTmWAdliAGycjNy7Z-81" value="" style="endArrow=open;endFill=1;endSize=12;html=1;rounded=0;exitX=0.25;exitY=0;exitDx=0;exitDy=0;entryX=0.038;entryY=1;entryDx=0;entryDy=0;entryPerimeter=0;" edge="1" parent="1" source="4NHsTmWAdliAGycjNy7Z-40" target="4NHsTmWAdliAGycjNy7Z-3">
          <mxGeometry width="160" relative="1" as="geometry">
            <mxPoint x="280" y="400" as="sourcePoint" />
            <mxPoint x="440" y="400" as="targetPoint" />
          </mxGeometry>
        </mxCell>
        <mxCell id="4NHsTmWAdliAGycjNy7Z-82" value="Smart Lock (Abstract)" style="swimlane;fontStyle=1;align=center;verticalAlign=top;childLayout=stackLayout;horizontal=1;startSize=26;horizontalStack=0;resizeParent=1;resizeParentMax=0;resizeLast=0;collapsible=1;marginBottom=0;whiteSpace=wrap;html=1;" vertex="1" parent="1">
          <mxGeometry x="120" y="270" width="210" height="140" as="geometry" />
        </mxCell>
        <mxCell id="4NHsTmWAdliAGycjNy7Z-83" value="+ int power : Usage" style="text;strokeColor=none;fillColor=none;align=left;verticalAlign=top;spacingLeft=4;spacingRight=4;overflow=hidden;rotatable=0;points=[[0,0.5],[1,0.5]];portConstraint=eastwest;whiteSpace=wrap;html=1;" vertex="1" parent="4NHsTmWAdliAGycjNy7Z-82">
          <mxGeometry y="26" width="210" height="26" as="geometry" />
        </mxCell>
        <mxCell id="4NHsTmWAdliAGycjNy7Z-84" value="" style="line;strokeWidth=1;fillColor=none;align=left;verticalAlign=middle;spacingTop=-1;spacingLeft=3;spacingRight=3;rotatable=0;labelPosition=right;points=[];portConstraint=eastwest;strokeColor=inherit;" vertex="1" parent="4NHsTmWAdliAGycjNy7Z-82">
          <mxGeometry y="52" width="210" height="8" as="geometry" />
        </mxCell>
        <mxCell id="4NHsTmWAdliAGycjNy7Z-86" value="+ getBatteryConsumption(): double" style="text;strokeColor=none;fillColor=none;align=left;verticalAlign=top;spacingLeft=4;spacingRight=4;overflow=hidden;rotatable=0;points=[[0,0.5],[1,0.5]];portConstraint=eastwest;whiteSpace=wrap;html=1;" vertex="1" parent="4NHsTmWAdliAGycjNy7Z-82">
          <mxGeometry y="60" width="210" height="40" as="geometry" />
        </mxCell>
        <mxCell id="4NHsTmWAdliAGycjNy7Z-88" value="+ setUsage(): void" style="text;strokeColor=none;fillColor=none;align=left;verticalAlign=top;spacingLeft=4;spacingRight=4;overflow=hidden;rotatable=0;points=[[0,0.5],[1,0.5]];portConstraint=eastwest;whiteSpace=wrap;html=1;" vertex="1" parent="4NHsTmWAdliAGycjNy7Z-82">
          <mxGeometry y="100" width="210" height="40" as="geometry" />
        </mxCell>
        <mxCell id="4NHsTmWAdliAGycjNy7Z-89" value="Smart Bulb (Abstract)" style="swimlane;fontStyle=1;align=center;verticalAlign=top;childLayout=stackLayout;horizontal=1;startSize=26;horizontalStack=0;resizeParent=1;resizeParentMax=0;resizeLast=0;collapsible=1;marginBottom=0;whiteSpace=wrap;html=1;" vertex="1" parent="1">
          <mxGeometry x="610" y="210" width="230" height="140" as="geometry" />
        </mxCell>
        <mxCell id="4NHsTmWAdliAGycjNy7Z-90" value="+ int power : Usage" style="text;strokeColor=none;fillColor=none;align=left;verticalAlign=top;spacingLeft=4;spacingRight=4;overflow=hidden;rotatable=0;points=[[0,0.5],[1,0.5]];portConstraint=eastwest;whiteSpace=wrap;html=1;" vertex="1" parent="4NHsTmWAdliAGycjNy7Z-89">
          <mxGeometry y="26" width="230" height="26" as="geometry" />
        </mxCell>
        <mxCell id="4NHsTmWAdliAGycjNy7Z-91" value="" style="line;strokeWidth=1;fillColor=none;align=left;verticalAlign=middle;spacingTop=-1;spacingLeft=3;spacingRight=3;rotatable=0;labelPosition=right;points=[];portConstraint=eastwest;strokeColor=inherit;" vertex="1" parent="4NHsTmWAdliAGycjNy7Z-89">
          <mxGeometry y="52" width="230" height="8" as="geometry" />
        </mxCell>
        <mxCell id="4NHsTmWAdliAGycjNy7Z-92" value="+ getPowerUsage(): double" style="text;strokeColor=none;fillColor=none;align=left;verticalAlign=top;spacingLeft=4;spacingRight=4;overflow=hidden;rotatable=0;points=[[0,0.5],[1,0.5]];portConstraint=eastwest;whiteSpace=wrap;html=1;" vertex="1" parent="4NHsTmWAdliAGycjNy7Z-89">
          <mxGeometry y="60" width="230" height="40" as="geometry" />
        </mxCell>
        <mxCell id="4NHsTmWAdliAGycjNy7Z-94" value="+ setUsage(): void" style="text;strokeColor=none;fillColor=none;align=left;verticalAlign=top;spacingLeft=4;spacingRight=4;overflow=hidden;rotatable=0;points=[[0,0.5],[1,0.5]];portConstraint=eastwest;whiteSpace=wrap;html=1;" vertex="1" parent="4NHsTmWAdliAGycjNy7Z-89">
          <mxGeometry y="100" width="230" height="40" as="geometry" />
        </mxCell>
      </root>
    </mxGraphModel>
  </diagram>
</mxfile>
